<?xml version="1.0" standalone="no"?>
<!DOCTYPE svg PUBLIC "-//W3C//DTD SVG 20010904//EN"
 "http://www.w3.org/TR/2001/REC-SVG-20010904/DTD/svg10.dtd">
<svg version="1.0" xmlns="http://www.w3.org/2000/svg"
 width="1561.000000pt" height="1561.000000pt" viewBox="0 0 1561.000000 1561.000000"
 preserveAspectRatio="xMidYMid meet">
<metadata>
Created by potrace 1.11, written by Peter Selinger 2001-2013
</metadata>
<g transform="translate(0.000000,1561.000000) scale(0.100000,-0.100000)"
fill="#000000" stroke="none">
<path d="M5420 10063 c-833 -37 -1603 -343 -2126 -846 -206 -198 -344 -387
-469 -642 -141 -289 -209 -564 -221 -903 l-5 -147 -25 2 c-13 1 -94 9 -180 18
-178 18 -511 21 -671 5 -321 -32 -580 -103 -838 -230 -348 -171 -590 -400
-743 -705 -100 -199 -137 -371 -129 -595 6 -161 25 -257 79 -390 l33 -82 605
6 c333 4 747 8 920 11 300 4 853 9 2615 20 960 6 2726 13 4895 20 2819 9 5472
23 5760 30 52 1 212 4 355 6 143 1 277 5 298 8 l38 6 -102 150 c-217 321 -409
556 -654 801 -237 238 -417 383 -660 532 -281 172 -651 305 -935 338 -30 3
-66 8 -80 10 -64 10 -366 3 -475 -11 -137 -18 -295 -52 -406 -88 l-76 -24 -13
56 c-125 569 -934 1172 -1885 1406 -290 71 -564 101 -844 92 -339 -11 -595
-74 -850 -208 -175 -92 -348 -236 -462 -387 -48 -63 -48 -64 -54 -35 -17 74
-69 243 -102 326 -299 762 -1017 1282 -1958 1416 -194 28 -454 42 -635 34z"/>
</g>
</svg>
